<svg xmlns="http://www.w3.org/2000/svg" viewBox="0 0 100 100" aria-hidden="true">
  <defs>
    <linearGradient id="blocoG" x1="0%" y1="0%" x2="100%" y2="100%">
      <stop offset="0%" stop-color="#a8763a"/>
      <stop offset="50%" stop-color="#7a5328"/>
      <stop offset="100%" stop-color="#3d2817"/>
    </linearGradient>
  </defs>
  <ellipse cx="50" cy="92" rx="32" ry="4" fill="#000" opacity="0.4"/>
  <rect x="14" y="14" width="72" height="72" rx="6" fill="url(#blocoG)" stroke="#2a1810" stroke-width="2"/>
  <path d="M18 18 L82 18 L82 22 L18 22 Z" fill="#c89656" opacity="0.4"/>
  <path d="M18 80 L82 80 L82 84 L18 84 Z" fill="#1a0e08" opacity="0.5"/>
  <g stroke="#2a1810" stroke-width="1.5" opacity="0.5" fill="none">
    <path d="M14 35 Q50 33 86 35"/>
    <path d="M14 50 Q50 52 86 50"/>
    <path d="M14 65 Q50 63 86 65"/>
  </g>
  <g stroke="#5e3d22" stroke-width="0.8" opacity="0.4">
    <path d="M30 14 L30 86"/>
    <path d="M50 14 L50 86"/>
    <path d="M70 14 L70 86"/>
  </g>
  <circle cx="22" cy="22" r="2.5" fill="#1a0e08"/>
  <circle cx="78" cy="22" r="2.5" fill="#1a0e08"/>
  <circle cx="22" cy="78" r="2.5" fill="#1a0e08"/>
  <circle cx="78" cy="78" r="2.5" fill="#1a0e08"/>
  <circle cx="22" cy="22" r="1.2" fill="#5e3d22"/>
  <circle cx="78" cy="22" r="1.2" fill="#5e3d22"/>
  <circle cx="22" cy="78" r="1.2" fill="#5e3d22"/>
  <circle cx="78" cy="78" r="1.2" fill="#5e3d22"/>
</svg>
