<svg xmlns="http://www.w3.org/2000/svg" viewBox="0 0 100 100" aria-hidden="true">
  <defs>
    <radialGradient id="i2c" cx="50%" cy="35%" r="65%">
      <stop offset="0%" stop-color="#7ba8e8"/>
      <stop offset="100%" stop-color="#1e3a8a"/>
    </radialGradient>
    <radialGradient id="i2h" cx="50%" cy="40%" r="60%">
      <stop offset="0%" stop-color="#3563b8"/>
      <stop offset="100%" stop-color="#1e3a8a"/>
    </radialGradient>
  </defs>
  <ellipse cx="50" cy="82" rx="26" ry="5" fill="#000" opacity="0.35"/>
  <g stroke="#0a1830" stroke-width="2.6" stroke-linecap="round" fill="none">
    <path d="M30 50 L16 48"/>
    <path d="M32 60 L17 64"/>
    <path d="M32 70 L18 78"/>
    <path d="M70 50 L84 48"/>
    <path d="M68 60 L83 64"/>
    <path d="M68 70 L82 78"/>
  </g>
  <ellipse cx="50" cy="56" rx="22" ry="26" fill="url(#i2c)"/>
  <path d="M50 32 Q50 58 50 78" stroke="#0a1830" stroke-width="1.5" opacity="0.5" fill="none"/>
  <ellipse cx="40" cy="56" rx="3" ry="6" fill="#0a1830" opacity="0.25"/>
  <ellipse cx="60" cy="56" rx="3" ry="6" fill="#0a1830" opacity="0.25"/>
  <circle cx="50" cy="34" r="14" fill="url(#i2h)"/>
  <path d="M43 21 Q40 12 36 8" stroke="#2548a0" stroke-width="2.6" fill="none" stroke-linecap="round"/>
  <path d="M57 21 Q60 12 64 8" stroke="#2548a0" stroke-width="2.6" fill="none" stroke-linecap="round"/>
  <circle cx="36" cy="8" r="3" fill="#fbbf24"/>
  <circle cx="64" cy="8" r="3" fill="#fbbf24"/>
  <circle cx="36" cy="8" r="5" fill="#fbbf24" opacity="0.25"/>
  <circle cx="64" cy="8" r="5" fill="#fbbf24" opacity="0.25"/>
  <circle cx="44" cy="34" r="4" fill="#0a0a05"/>
  <circle cx="56" cy="34" r="4" fill="#0a0a05"/>
  <circle cx="44" cy="34" r="2.2" fill="#f59e0b"/>
  <circle cx="56" cy="34" r="2.2" fill="#f59e0b"/>
  <circle cx="45" cy="33" r="0.9" fill="#fef3c7"/>
  <circle cx="57" cy="33" r="0.9" fill="#fef3c7"/>
</svg>
