<svg xmlns="http://www.w3.org/2000/svg" viewBox="0 0 100 100" aria-hidden="true">
  <defs>
    <linearGradient id="picCabo" x1="0%" y1="100%" x2="100%" y2="0%">
      <stop offset="0%" stop-color="#3d2817"/>
      <stop offset="50%" stop-color="#7a5328"/>
      <stop offset="100%" stop-color="#3d2817"/>
    </linearGradient>
    <linearGradient id="picMetal" x1="0%" y1="0%" x2="100%" y2="100%">
      <stop offset="0%" stop-color="#a8b3a8"/>
      <stop offset="50%" stop-color="#5c6960"/>
      <stop offset="100%" stop-color="#1f2520"/>
    </linearGradient>
  </defs>
  <ellipse cx="50" cy="92" rx="28" ry="4" fill="#000" opacity="0.4"/>
  <g transform="rotate(-30 50 50)">
    <rect x="42" y="22" width="10" height="62" rx="3" fill="url(#picCabo)" stroke="#1a0e08" stroke-width="1.5"/>
    <line x1="44" y1="30" x2="50" y2="30" stroke="#1a0e08" stroke-width="0.6" opacity="0.6"/>
    <line x1="44" y1="44" x2="50" y2="44" stroke="#1a0e08" stroke-width="0.6" opacity="0.6"/>
    <line x1="44" y1="58" x2="50" y2="58" stroke="#1a0e08" stroke-width="0.6" opacity="0.6"/>
    <path d="M16 20 Q12 18 14 14 Q16 8 26 10 L46 18 L50 26 L46 30 L26 24 Q16 22 16 20 Z M54 18 L74 10 Q84 8 86 14 Q88 18 84 20 Q84 22 74 24 L54 30 L50 26 Z"
          fill="url(#picMetal)" stroke="#0a0c0a" stroke-width="1.5"/>
    <path d="M22 14 L40 22 M62 22 L80 14" stroke="#dde0dd" stroke-width="0.8" opacity="0.6"/>
    <ellipse cx="50" cy="24" rx="5" ry="3" fill="#1f2520"/>
  </g>
</svg>
